<svg xmlns="http://www.w3.org/2000/svg" version="1.1" xmlns:xlink="http://www.w3.org/1999/xlink" xmlns:svgjs="http://svgjs.com/svgjs" width="512" height="512" x="0" y="0" viewBox="0 0 64 64" style="enable-background:new 0 0 512 512" xml:space="preserve" class=""><g><path xmlns="http://www.w3.org/2000/svg" d="M29,1H21a3,3,0,0,0-3,3V9.59A31.512,31.512,0,0,0,9,31.728V55a8.009,8.009,0,0,0,8,8H43a8.009,8.009,0,0,0,8-8V28.614a12.938,12.938,0,0,0-6.058-10.992L32,9.449V4A3,3,0,0,0,29,1Zm1,3V9H28V3h1A1,1,0,0,1,30,4ZM24,9V3h2V9ZM21,3h1V9H20V4A1,1,0,0,1,21,3Zm6.586,52H12.414l20-20H47.586ZM49,36.414V55H30.414ZM11,53.586V35H29.586ZM43,61H17a6,6,0,0,1-5.65-4h37.3A6,6,0,0,1,43,61Zm.874-41.687A10.948,10.948,0,0,1,49,28.614V33H11V31.728A29.524,29.524,0,0,1,19.428,11H30.71Z" fill="#000000" data-original="#000000" class=""></path><path xmlns="http://www.w3.org/2000/svg" d="M37.586,26l7.89,4.856A1,1,0,0,0,47,30a11.812,11.812,0,0,0-5.586-10l-7.89-4.856A1,1,0,0,0,32,16,11.812,11.812,0,0,0,37.586,26Zm2.78-4.289a9.812,9.812,0,0,1,4.442,6.385l-6.174-3.8a9.812,9.812,0,0,1-4.442-6.385Z" fill="#000000" data-original="#000000" class=""></path></g></svg>