<svg width="23" height="16" viewBox="0 0 23 16" fill="none" xmlns="http://www.w3.org/2000/svg">
<path d="M9.00015 1.00008C8.60963 0.609551 7.97646 0.609551 7.58594 1.00007L0.939491 7.64652C0.744229 7.84178 0.744228 8.15837 0.939491 8.35363L7.58594 15.0001C7.97646 15.3906 8.60963 15.3906 9.00015 15.0001V15.0001C9.39068 14.6096 9.39067 13.9764 9.00015 13.5859L4.84114 9.42685C4.68365 9.26936 4.79519 9.00008 5.01792 9.00008H22.0002C22.5524 9.00008 23.0002 8.55236 23.0002 8.00008V8.00008C23.0002 7.44779 22.5524 7.00008 22.0002 7.00008H5.01792C4.79519 7.00008 4.68365 6.73079 4.84114 6.5733L9.00015 2.41429C9.39068 2.02376 9.39068 1.3906 9.00015 1.00008V1.00008Z" fill="#93397F"/>
</svg>
