<svg xmlns="http://www.w3.org/2000/svg" version="1.1" xmlns:xlink="http://www.w3.org/1999/xlink" xmlns:svgjs="http://svgjs.com/svgjs" width="512" height="512" x="0" y="0" viewBox="0 0 60 60" style="enable-background:new 0 0 512 512" xml:space="preserve" class=""><g><g xmlns="http://www.w3.org/2000/svg" id="Page-1" fill="none" fill-rule="evenodd"><g id="016---Transparent-Tablet" fill="rgb(0,0,0)" fill-rule="nonzero"><path id="Shape" d="m3 60h9.461c1.4172586-.0030776 2.6407809-.9934687 2.939-2.379l1.727-8.167c.2107609-1.0011213.8080034-1.8786582 1.662-2.442 1.3448503-.8961854 2.3105195-2.2583097 2.711-3.824l.815-3.188h15.37l.816 3.188c.4050734 1.5743519 1.3800218 2.9423443 2.736 3.839.8437691.5626476 1.4327357 1.4342462 1.64 2.427l1.723 8.166c.2977324 1.3855631 1.5208139 2.3763508 2.938 2.38h9.462c.8529438.0000269 1.6655761-.3630159 2.2346772-.9983404.5691011-.6353244.8408623-1.4828604.7473228-2.3306596-.3612326-3.3383863-1.014399-6.6386835-1.952-9.863-.1402397-.3867455-.1462278-.809437-.017-1.2.6755308-2.1368077 1.0086508-4.3670581.987-6.608.0588762-1.0677031-.0693886-2.1374781-.379-3.161-.3570854-1.3255802-.4889204-2.7017347-.39-4.071.0207742-1.5019918.2890383-2.9902829.794-4.405.1878336-.5265093.3270811-1.0691061.416-1.621.1198621-.870267-.1154778-1.7521608-.653-2.447-.5536323-.7241377-1.3821315-1.1870249-2.2890192-1.278888s-1.8113814.1954808-2.4989808.793888v-18.81c0-2.209139-1.790861-4-4-4h-40c-2.209139 0-4 1.790861-4 4v18.81c-.6874135-.5970812-1.59097918-.8836089-2.49685405-.7917717-.90587486.0918373-1.73355103.5538775-2.28714595 1.2767717-.53468277.6889559-.77063705 1.5636078-.655 2.428.08814233.5584529.22807938 1.1074882.418 1.64.50496173 1.4147171.77322578 2.9030082.794 4.405.09892038 1.3692653-.03291462 2.7454198-.39 4.071-.31096242 1.0232828-.44058144 2.0930628-.383 3.161-.02314922 2.2424564.3089639 4.474432.984 6.613.1292278.390563.12323967.8132545-.017 1.2-.9358701 3.2224919-1.58769412 6.5207616-1.948 9.857-.09382609.847788.1776661 1.6954343.74657999 2.3309536.56891388.6355194 1.38145587.9988204 2.23442001.9990464zm51.715-34.542c.239-.618.49-1.591 1.609-1.449.3479368.044378.6634714.22664.8757553.5058621.212284.2792221.303528.6320053.2532447.9791379-.0786992.4304458-.1920685.8538249-.339 1.266-.5678913 1.6095032-.8675471 3.3013593-.887 5.008-.1065273 1.5653916.0540987 3.1374971.475 4.649.2520267.8364528.3529383 1.7111327.298 2.583.0227854 2.0308474-.2759077 4.0525101-.885 5.99-.2658001.8144188-.2520744 1.6942685.039 2.5.8842727 3.0743191 1.5009052 6.2193794 1.843 9.4.0331699.2802896-.0561176.5612717-.245.771-.1896544.2166932-.4640367.3403842-.752.339h-9.462c-.4720045-.000633-.8792954-.3312181-.977-.793l-1.727-8.167c-.3181634-1.513042-1.2200424-2.8396307-2.51-3.692-.9349042-.6222403-1.6066576-1.5682516-1.886-2.656l-.689-2.692h10.251c2.209139 0 4-1.790861 4-4v-7.1c.00839-1.1833247.2514127-2.3532326.715-3.442zm-17.146-2.038c3.655 16.538 1.845 8.347 2.368 10.715.1190174.5395822.6529178.8805174 1.1925.7615s.8805174-.6529178.7615-1.1925l-2.755-12.453c-.1135632-.419976.0001523-.8687734.3-1.184.2628804-.219766.6205613-.2883114.9460644-.1813022.325503.1070091.5727381.3744206.6539356.7073022 3.088 13.935-.648-2.919 2.532 11.428.1195697.5395822.6539178.8800696 1.1935.7605.5395822-.1195697.8800696-.6539178.7605-1.1935-.302-1.348 1.078 4.882-2.922-13.181-.112367-.4186171.0056154-.865428.31-1.174.2671355-.2127871.6243931-.274528.947449-.163737.3230559.1107909.56723.3787908.647551.710737 3.406 15.354 2.645 11.924 2.759 12.436.0771693.3488699.3345966.6300696.6753115.7376739.3407148.1076043.7129545.0252655.9765-.216.2635455-.2412656.3783579-.604804.3011885-.9536739-.188-.851-2.464-11.129-2.32-10.493-.0574968-.2572764-.0103297-.526857.1311059-.7493273.1414355-.2224703.3655301-.3795692.6228941-.4366727.5465007-.1077361 1.0791356.240252 1.2.784l3.149 12.25v4.861c0 1.1045695-.8954305 2-2 2h-10.763l-3.619-14.138c-.0581014-.2591386-.0107369-.5307457.131648-.7549223.142385-.2241765.3680946-.3825084.627352-.4400777.5303858-.0855853 1.0414703.2372726 1.192.753zm-27.569-21.42h40c1.1045695 0 2 .8954305 2 2v19.111l-1.2-4.686c-.1767751-.7725162-.6520358-1.4437051-1.322-1.867-.6667561-.4314429-1.4786074-.577677-2.254-.406-.3730751.0793544-.7270438.2308612-1.042.446-.377599-.6885626-1.0039521-1.2068868-1.751-1.449-.9841697-.3288498-2.0690886-.105226-2.843.586-.6077679.5503888-.9727296 1.3191454-1.015 2.138-.893265-.1646052-1.811924.1006206-2.48.716-.5874402.5493668-.9393712 1.3048358-.982 2.108-.3843823-.0742878-.7799554-.0685005-1.162.017-.7829269.1736784-1.4637235.6535956-1.8904149 1.3326193s-.5637518 1.5006191-.3805851 2.2813807l3.495 13.672h-14.346l3.508-13.7c.1739241-.7776934.0312795-1.5926304-.3964618-2.2650098-.4277414-.6723793-1.1054272-1.1469441-1.8835382-1.3189902-.3819643-.0835451-.7768785-.0889875-1.161-.016-.0426288-.8031642-.3945598-1.5586332-.982-2.108-.667838-.6158019-1.5867111-.8810895-2.48-.716-.0422699-.8193547-.4076235-1.5885393-1.016-2.139-.7738955-.6905108-1.8583037-.9137265-2.842-.585-.7470031.2420992-1.3735705.7599471-1.752 1.448-.3110111-.2134797-.6609941-.3636666-1.03-.442-1.6019421-.3484267-3.18965788.6435075-3.579 2.236l-1.213 4.713v-19.107c0-1.1045695.8954305-2 2-2zm-2 29.139 3.158-12.285c.1377685-.5284479.6650114-.8566566 1.2-.747.5309535.1235403.8630381.652019.744 1.184-.022.1-2.3 10.392-2.32 10.493-.0771694.3488699.037643.7124083.3011885.9536738.2635455.2412656.6357852.3236043.9765.216.3407149-.1076043.5981421-.3888039.6753115-.7376738.115-.515-.65 2.929 2.761-12.444.0828516-.329486.3273228-.5943688.6491225-.7033199.3217998-.108951.6769043-.0470652.9428775.1643199.3052802.3084708.4237052.7558965.311 1.175-4.065 18.344-2.663 12.017-2.966 13.386-.1195696.5393061.2206939 1.0734304.76 1.193s1.0734304-.2206939 1.193-.76c.263-1.19 1.933-8.725 2.578-11.634.0811975-.3328816.3284326-.6002931.6539356-.7073022.3255031-.1070092.683184-.0384638.9460644.1813022.2996751.3149151.4133909.7633345.3 1.183l-2.734 12.358c-.0771694.3488698.037643.7124082.3011885.9536738s.6357852.3236043.9765.216.5981421-.388804.6753115-.7376738c1.593-7.208-1.141 5.164 2.348-10.619.1489103-.5166686.6601865-.8407774 1.191-.755.5298655.1160504.8706023.633367.768 1.166l-3.627 14.168h-10.763c-1.1045695 0-2-.8954305-2-2zm-4.15 16.361c.29107443-.8057315.30480008-1.6855812.039-2.5-.61149279-1.9404653-.9115489-3.9655909-.889-6-.05429085-.8719865.04729828-1.7466689.3-2.583.42090131-1.5115029.58152727-3.0836084.475-4.649-.01945291-1.7066407-.31910874-3.3984968-.887-5.008-.14919352-.4181082-.26325552-.8479314-.341-1.285-.04717296-.3418674.04547756-.6883154.257-.961.29582345-.386744.78235066-.5766336 1.26194347-.4925314.47959282.0841022.87247788.428207 1.01905653.8925314.56621479 1.2548749.87724599 2.6098151.915 3.986v7.1c0 2.209139 1.790861 4 4 4h10.251l-.689 2.692c-.2839406 1.0977505-.9657497 2.0507863-1.913 2.674-1.2774278.8516788-2.1691409 2.1711125-2.483 3.674l-1.727 8.167c-.0977046.4617819-.5049955.792367-.977.793h-9.462c-.2861271.0017785-.55911489-.1199544-.749-.334-.18888244-.2097283-.27816988-.4907104-.245-.771.34270665-3.1789654.95967154-6.3223412 1.844-9.395z" fill="#000000" data-original="#000000" class=""></path><path id="Shape" d="m11 8c.2651948-.00005664.5195073-.10545063.707-.293l2-2c.2599566-.25107447.3642126-.62287789.2726972-.97250732-.0915155-.34962944-.3645604-.6226744-.7141899-.71418984-.3496294-.09151544-.7214328.01274058-.9725073.27269716l-2 2c-.2859079.28599425-.37142191.71603662-.216678 1.08965456.1547439.37361794.5192821.61725909.923678.61734544z" fill="#000000" data-original="#000000" class=""></path><path id="Shape" d="m11 13c.2651948-.0000566.5195073-.1054506.707-.293l7-7c.2599566-.25107447.3642126-.62287789.2726972-.97250732-.0915155-.34962944-.3645604-.6226744-.7141899-.71418984-.3496294-.09151544-.7214328.01274058-.9725073.27269716l-7 7c-.2859079.2859943-.37142191.7160366-.216678 1.0896546.1547439.3736179.5192821.6172591.923678.6173454z" fill="#000000" data-original="#000000" class=""></path></g></g></g></svg>