<svg xmlns="http://www.w3.org/2000/svg" version="1.1" xmlns:xlink="http://www.w3.org/1999/xlink" xmlns:svgjs="http://svgjs.com/svgjs" width="512" height="512" x="0" y="0" viewBox="0 0 64 64" style="enable-background:new 0 0 512 512" xml:space="preserve" class="">
    <g>
        <path xmlns="http://www.w3.org/2000/svg" d="M58,15H52V14a3,3,0,0,0-3-3H45a3,3,0,0,0-3,3v1H22V14a3,3,0,0,0-3-3H15a3,3,0,0,0-3,3v1H6a5.006,5.006,0,0,0-5,5V34a1,1,0,0,0,.051.316L2.713,39.3a2.981,2.981,0,0,0,.475,5.572l1.274,5.1A3.993,3.993,0,0,0,8.342,53h5.316a3.993,3.993,0,0,0,3.88-3.03L18,48.122l.462,1.848A3.993,3.993,0,0,0,22.342,53h5.316a3.993,3.993,0,0,0,3.88-3.03L32,48.122l.462,1.848A3.993,3.993,0,0,0,36.342,53h5.316a3.993,3.993,0,0,0,3.88-3.03L46,48.122l.462,1.848A3.993,3.993,0,0,0,50.342,53h5.316a3.993,3.993,0,0,0,3.88-3.03l1.274-5.1a2.981,2.981,0,0,0,.475-5.572l1.662-4.986A1,1,0,0,0,63,34V20A5.006,5.006,0,0,0,58,15ZM44,14a1,1,0,0,1,1-1h4a1,1,0,0,1,1,1v1H44ZM14,14a1,1,0,0,1,1-1h4a1,1,0,0,1,1,1v1H14ZM3,20a3,3,0,0,1,3-3H58a3,3,0,0,1,3,3V33.838L59.279,39H57.388l1.561-4.684A1,1,0,0,0,59,34V20a1,1,0,0,0-1-1H6a1,1,0,0,0-1,1V34a1,1,0,0,0,.051.316L6.612,39H4.721L3,33.838ZM48.781,39l-.811-3.242A1,1,0,0,0,47,35H45a1,1,0,0,0-.97.758L43.219,39H34.781l-.811-3.242A1,1,0,0,0,33,35H31a1,1,0,0,0-.97.758L29.219,39H20.781l-.811-3.242A1,1,0,0,0,19,35H17a1,1,0,0,0-.97.758L15.219,39h-6.5L7,33.838V21H57V33.838L55.279,39Zm-2.062,0H45.281l.5-2h.438Zm-14,0H31.281l.5-2h.438Zm-14,0H17.281l.5-2h.438ZM15.6,49.485A2,2,0,0,1,13.658,51H8.342A2,2,0,0,1,6.4,49.485L5.281,45H16.719Zm14,0A2,2,0,0,1,27.658,51H22.342a2,2,0,0,1-1.94-1.515L19.281,45H30.719Zm14,0A2,2,0,0,1,41.658,51H36.342a2,2,0,0,1-1.94-1.515L33.281,45H44.719Zm14,0A2,2,0,0,1,55.658,51H50.342a2,2,0,0,1-1.94-1.515L47.281,45H58.719ZM60,43H4a1,1,0,0,1,0-2H60a1,1,0,0,1,0,2Z" fill="#000000" data-original="#000000" class=""></path><path xmlns="http://www.w3.org/2000/svg" d="M9,24v6h2V25h3V23H10A1,1,0,0,0,9,24Z" fill="#000000" data-original="#000000" class=""></path>
        <rect xmlns="http://www.w3.org/2000/svg" x="16" y="23" width="2" height="2" fill="#000000" data-original="#000000" class=""></rect>
    </g>
</svg>