<svg xmlns="http://www.w3.org/2000/svg" version="1.1" xmlns:xlink="http://www.w3.org/1999/xlink" xmlns:svgjs="http://svgjs.com/svgjs" width="512" height="512" x="0" y="0" viewBox="0 0 64 64" style="enable-background:new 0 0 512 512" xml:space="preserve" class=""><g><g xmlns="http://www.w3.org/2000/svg" id="Layer_28" data-name="Layer 28"><path d="M61,44a2.994,2.994,0,0,0-2.618-2.961C60.746,38,62,31.877,62,26c0-8.241-2.453-17-7-17s-7,8.759-7,17c0,5.851,1.243,11.947,3.587,15H36V15a1,1,0,0,0-.2-.6L33,10.667V7a1,1,0,0,0-1-1H28.8A3.808,3.808,0,0,0,29,4.829a3.828,3.828,0,0,0-6.535-2.707L18.586,6H6A1,1,0,0,0,5,7v3.667L2.2,14.4A1,1,0,0,0,2,15V55a1,1,0,0,0,.241.651l4.7,5.481A5.343,5.343,0,0,0,11,63H58a2.993,2.993,0,0,0,1-5.816V46.816A3,3,0,0,0,61,44ZM41,57V53a2,2,0,0,1,2-2H57v6Zm16-8H43a4,4,0,0,0-4,4v4H27V47H57Zm2-5a1,1,0,0,1-1,1H26a1,1,0,0,1,0-2H58A1,1,0,0,1,59,44ZM50,26c0-8.585,2.64-15,5-15s5,6.415,5,15-2.64,15-5,15S50,34.585,50,26ZM26,41a2.993,2.993,0,0,0-1,5.816V54H4V52.358l3.905-4.773a22.683,22.683,0,0,1,11.783-7.6,25,25,0,0,0,12.987-8.478L34,29.851V41ZM6.5,12h25L33,14H5ZM34,16v1.649l-2.888,3.609a22.963,22.963,0,0,1-11.94,7.794A24.685,24.685,0,0,0,6.356,37.318L4,40.2V16ZM4,43.358l3.905-4.773a22.683,22.683,0,0,1,11.783-7.6,25,25,0,0,0,12.987-8.478L34,20.851v5.8l-2.888,3.609a22.963,22.963,0,0,1-11.94,7.794A24.685,24.685,0,0,0,6.356,46.318L4,49.2ZM23.879,3.535A1.829,1.829,0,0,1,27,4.829,1.813,1.813,0,0,1,26.565,6H21.414ZM7,8H31v2H7ZM8.457,59.831,5.174,56H25v1.184A2.947,2.947,0,0,0,23.184,61H11A3.347,3.347,0,0,1,8.457,59.831ZM58,61H26a1,1,0,0,1,0-2H58a1,1,0,0,1,0,2Z" fill="#000000" data-original="#000000" class=""></path></g></g></svg>