<svg xmlns="http://www.w3.org/2000/svg" version="1.1" xmlns:xlink="http://www.w3.org/1999/xlink" xmlns:svgjs="http://svgjs.com/svgjs" width="512" height="512" x="0" y="0" viewBox="0 0 64 64" style="enable-background:new 0 0 512 512" xml:space="preserve">
  <g>
    <path xmlns="http://www.w3.org/2000/svg" d="m54 1h-44a1 1 0 0 0 -1 1v60a1 1 0 0 0 1 1h4a1 1 0 0 0 1-1v-3h2v3a1 1 0 0 0 1 1h4a1 1 0 0 0 1-1v-7h2v3a1 1 0 0 0 1 1h3v3a1 1 0 0 0 1 1h4a1 1 0 0 0 1-1v-3h2v3a1 1 0 0 0 1 1h4a1 1 0 0 0 1-1v-7h2v7a1 1 0 0 0 1 1h4a1 1 0 0 0 1-1v-3h3a1 1 0 0 0 1-1v-56a1 1 0 0 0 -1-1zm-1 56h-2v-12h-2v16h-2v-16h-2v8h-2v-8h-2v16h-2v-16h-2v12h-2v-12h-2v16h-2v-16h-2v12h-2v-12h-2v8h-2v-8h-2v16h-2v-16h-2v12h-2v-12h-2v16h-2v-58h42z" fill="#000000" data-original="#000000" class=""></path>
    <path xmlns="http://www.w3.org/2000/svg" d="m15 7h24v2h-24z" fill="#000000" data-original="#000000" class=""></path>
    <path xmlns="http://www.w3.org/2000/svg" d="m15 13h34v2h-34z" fill="#000000" data-original="#000000" class=""></path>
    <path xmlns="http://www.w3.org/2000/svg" d="m15 19h34v2h-34z" fill="#000000" data-original="#000000" class=""></path>
    <path xmlns="http://www.w3.org/2000/svg" d="m15 25h34v2h-34z" fill="#000000" data-original="#000000" class=""></path>
    <path xmlns="http://www.w3.org/2000/svg" d="m15 31h34v2h-34z" fill="#000000" data-original="#000000" class=""></path>
    <path xmlns="http://www.w3.org/2000/svg" d="m15 37h34v2h-34z" fill="#000000" data-original="#000000" class=""></path>
  </g>
</svg>
