<svg xmlns="http://www.w3.org/2000/svg" version="1.1" xmlns:xlink="http://www.w3.org/1999/xlink" xmlns:svgjs="http://svgjs.com/svgjs" width="512" height="512" x="0" y="0" viewBox="0 0 64 64" style="enable-background:new 0 0 512 512" xml:space="preserve" class=""><g><path xmlns="http://www.w3.org/2000/svg" d="M47,1H23a1,1,0,0,0-1,1V3H19a1,1,0,0,0-1,1V8a1,1,0,0,0,1,1h3v1a1,1,0,0,0,1,1h2v4.472L21.748,18.8a3.131,3.131,0,0,0,.026,4.385,3.092,3.092,0,0,0,2.2.914H24a3.093,3.093,0,0,0,2.214-.943L29.293,20A5.792,5.792,0,0,0,31,15.879V11h6v3.879a1,1,0,0,0-1,1v3H35a1,1,0,0,0-1,1,10.412,10.412,0,0,1-4.648,8.684L21.789,33.6A12.975,12.975,0,0,0,16,44.422V58a5.006,5.006,0,0,0,5,5H43a5.006,5.006,0,0,0,5-5V19.879a1,1,0,0,0-1-1H46v-3a1,1,0,0,0-1-1V11h2a1,1,0,0,0,1-1V2A1,1,0,0,0,47,1ZM20,7V5h2V7Zm9,8.879A3.813,3.813,0,0,1,27.87,18.6l-3.087,3.169a1.12,1.12,0,1,1-1.6-1.564l3.536-3.622a1,1,0,0,0,.285-.7V11h2ZM22.9,35.27l7.563-5.042a12.409,12.409,0,0,0,5.5-9.349H46V37H20.884A11.024,11.024,0,0,1,22.9,35.27ZM29.183,53.4l-1.6,1.6H20.414L25.6,49.817A7.032,7.032,0,0,0,29.183,53.4ZM43.586,39,38.4,44.183A7.032,7.032,0,0,0,34.817,40.6l1.6-1.6ZM37,47a5,5,0,1,1-5-5A5.006,5.006,0,0,1,37,47Zm-5.558,6.972c.185.014.37.028.558.028a7.008,7.008,0,0,0,7-7c0-.188-.014-.373-.028-.558L46,39.414V55H30.414ZM19.441,39H33.586l-1.028,1.028C32.373,40.014,32.188,40,32,40a7.008,7.008,0,0,0-7,7c0,.188.014.373.028.558L18,54.586V44.422A10.977,10.977,0,0,1,19.441,39ZM43,61H21a3,3,0,0,1-3-3V57H46v1A3,3,0,0,1,43,61ZM38,18.879v-2h6v2Zm5-4H39V11h4ZM46,9H24V3H46Z" fill="#000000" data-original="#000000" class=""></path></g></svg>
