<svg xmlns="http://www.w3.org/2000/svg" version="1.1" xmlns:xlink="http://www.w3.org/1999/xlink" xmlns:svgjs="http://svgjs.com/svgjs" width="512" height="512" x="0" y="0" viewBox="0 0 48 60" style="enable-background:new 0 0 512 512" xml:space="preserve" class=""><g><g xmlns="http://www.w3.org/2000/svg" id="Page-1" fill="none" fill-rule="evenodd"><g id="023---Snack-Packaging" fill="rgb(0,0,0)" fill-rule="nonzero"><path id="Shape" d="m24 14c-8.836556 0-16 7.163444-16 16s7.163444 16 16 16 16-7.163444 16-16c-.0104696-8.8322157-7.1677843-15.9895304-16-16zm0 30c-7.7319865 0-14-6.2680135-14-14s6.2680135-14 14-14 14 6.2680135 14 14c-.0082673 7.7285595-6.2714405 13.9917327-14 14z" fill="#000000" data-original="#000000"></path><path id="Shape" d="m47.071 3.949c.3050716-.91487534.1517213-1.92063069-.4121364-2.70301803-.5638578-.78238734-1.4694645-1.24599987-2.4338636-1.24598197h-40.45c-.96439906-.0000179-1.87000578.46359463-2.43386356 1.24598197-.56385779.78238734-.71720801 1.78814269-.41213644 2.70301803l1.122 3.367c.0314365.09062557.0759031.17619007.132.254-.849 1.879-1.835 6.016.753 12.944-1.2493964 3.3257444-1.87452449 6.8534466-1.844 10.406-.01796156 3.2309228.49139757 6.4431279 1.508 9.51-2.167 6.357-1.232 10.207-.421 12-.05608409.0774563-.10055351.1626893-.132.253l-1.118 3.368c-.30507157.9148753-.15172135 1.9206307.41213644 2.703018.56385778.7823874 1.4694645 1.2459999 2.43386356 1.245982h40.45c.9643991.0000179 1.8700058-.4635946 2.4338636-1.245982.5638577-.7823873.717208-1.7881427.4121364-2.703018l-1.122-3.367c-.0314465-.0903107-.0759159-.1755437-.132-.253.811-1.794 1.745-5.644-.42-12 1.0191406-3.0667292 1.5302104-6.2794092 1.513-9.511.0184982-3.5500288-.6080045-7.0738947-1.849-10.4 2.592-6.933 1.606-11.073.756-12.953.0560969-.07780993.1005635-.16337443.132-.254zm-44.108-1.533c.18683192-.26255534.48976032-.41775019.812-.416h40.45c.3214436-.00007741.6233283.15437125.8113424.41509465.1880141.26072341.2392338.59593279.1376576.90090535l-.895 2.684h-3.279v-1c0-.55228475-.4477153-1-1-1s-1 .44771525-1 1v1h-2v-1c0-.55228475-.4477153-1-1-1s-1 .44771525-1 1v1h-2v-1c0-.55228475-.4477153-1-1-1s-1 .44771525-1 1v1h-2v-1c0-.55228475-.4477153-1-1-1s-1 .44771525-1 1v1h-2v-1c0-.55228475-.4477153-1-1-1s-1 .44771525-1 1v1h-2v-1c0-.55228475-.4477153-1-1-1s-1 .44771525-1 1v1h-2v-1c0-.55228475-.4477153-1-1-1s-1 .44771525-1 1v1h-2v-1c0-.55228475-.4477153-1-1-1s-1 .44771525-1 1v1h-2v-1c0-.55228475-.44771525-1-1-1s-1 .44771525-1 1v1h-3.279l-.895-2.684c-.10367509-.30440477-.05255482-.64023134.137-.9zm42.074 55.168c-.1868319.2625553-.4897603.4177502-.812.416h-40.45c-.32144358.0000774-.62332833-.1543712-.8113424-.4150947-.18801406-.2607234-.23923378-.5959327-.1376576-.9009053l.895-2.684h3.279v1c0 .5522847.44771525 1 1 1s1-.4477153 1-1v-1h2v1c0 .5522847.4477153 1 1 1s1-.4477153 1-1v-1h2v1c0 .5522847.4477153 1 1 1s1-.4477153 1-1v-1h2v1c0 .5522847.4477153 1 1 1s1-.4477153 1-1v-1h2v1c0 .5522847.4477153 1 1 1s1-.4477153 1-1v-1h2v1c0 .5522847.4477153 1 1 1s1-.4477153 1-1v-1h2v1c0 .5522847.4477153 1 1 1s1-.4477153 1-1v-1h2v1c0 .5522847.4477153 1 1 1s1-.4477153 1-1v-1h2v1c0 .5522847.4477153 1 1 1s1-.4477153 1-1v-1h3.279l.895 2.684c.1036751.3044048.0525548.6402313-.137.9zm-1.627-40.451c-.2913302-.469442-.908058-.6138302-1.3775-.3225s-.6138302.908058-.3225 1.3775c2.1894612 3.88011 3.2947523 8.2777867 3.2 12.732.0978222 4.5082198-1.0262459 8.9588801-3.253 12.88-.1933331.3047936-.2074148.6901192-.0368452 1.0082117.1705697.3180924.499318.5195834.8601764.5272048.3608583.0076215.6978208-.1798094.8816688-.4904165.2893333-.4706667.5613333-.9606667.816-1.47 1.206 4.993.122 7.721-.376 8.628h-39.602c-.5-.906-1.582-3.633-.378-8.624.253.5.522.992.807 1.46.29162658.4612574.89920293.6035393 1.36530942.3197274.46610648-.2838119.61860722-.8889042.34269058-1.3597274-2.20244357-3.9301451-3.32223698-8.3744653-3.245-12.879-.09465287-4.4558508 1.01355495-8.8548279 3.208-12.734.18881488-.3036758.20127793-.6850153.03269444-1.0003716-.16858348-.3153564-.49260166-.5168194-.85000001-.5285s-.69387957.1681958-.88269443.4718716c-.153.246-.29.511-.433.768-1.722-5.808-.5-8.921.032-9.9h39.601c.543.988 1.752 4.1.036 9.892-.142-.251-.277-.515-.426-.756z" fill="#000000" data-original="#000000"></path><path id="Shape" d="m31 25c-.0004603-2.8840509-1.7697074-5.4726192-4.4566588-6.5204942-2.6869514-1.0478751-5.7415552-.340544-7.6944179 1.7817371-1.9528627 2.1222812-2.4042094 5.2250553-1.1369233 7.8157571.6004344 1.2116955.6004344 2.6343045 0 3.846-.9443913 1.9262331-.9533688 4.1791525-.0243588 6.1128509.92901 1.9336983 2.6934132 3.3346294 4.7873588 3.8011491.4978702.1074128 1.0056756.162048 1.515.163 2.4574794.003333 4.7367217-1.2822551 6.0050884-3.3871214 1.2683668-2.1048663 1.3400685-4.7206914.1889116-6.8918786-.5647508-1.0764225-.5647508-2.3615775 0-3.438.5360857-1.0112502.8162526-2.1384413.816-3.283zm-2.582 7.658c.8992666 1.7174211.7247349 3.7998797-.4478541 5.3436578s-3.131877 2.2706107-5.0275979 1.8650766c-1.895721-.405534-3.3861725-1.8703375-3.824548-3.7587344-.2461425-1.1123949-.109057-2.2753304.389-3.3.8749285-1.7669573.8749285-3.8410427 0-5.608-.4989689-1.0261866-.6360685-2.1910044-.389-3.305.4198775-1.8829213 1.8908564-3.3531206 3.774-3.772.3593338-.0793143.7260252-.120542 1.094-.123 1.756082-.0046948 3.3858984.9122102 4.2936115 2.4155076.907713 1.5032974.9602441 3.3725905.1383885 4.9244924-.8736196 1.6650306-.8736196 3.6529694 0 5.318z" fill="#000000" data-original="#000000"></path><path id="Shape" d="m22 25c.5522847 0 1-.4477153 1-1v-1c0-.5522847-.4477153-1-1-1s-1 .4477153-1 1v1c0 .5522847.4477153 1 1 1z" fill="#000000" data-original="#000000"></path><path id="Shape" d="m26 22c-.5522847 0-1 .4477153-1 1v1c0 .5522847.4477153 1 1 1s1-.4477153 1-1v-1c0-.5522847-.4477153-1-1-1z" fill="#000000" data-original="#000000"></path><path id="Shape" d="m23 28c0 .5522847.4477153 1 1 1s1-.4477153 1-1v-1c0-.5522847-.4477153-1-1-1s-1 .4477153-1 1z" fill="#000000" data-original="#000000"></path><path id="Shape" d="m22 35c-.5522847 0-1 .4477153-1 1v1c0 .5522847.4477153 1 1 1s1-.4477153 1-1v-1c0-.5522847-.4477153-1-1-1z" fill="#000000" data-original="#000000"></path><path id="Shape" d="m26 35c-.5522847 0-1 .4477153-1 1v1c0 .5522847.4477153 1 1 1s1-.4477153 1-1v-1c0-.5522847-.4477153-1-1-1z" fill="#000000" data-original="#000000"></path><path id="Shape" d="m25 32c0-.5522847-.4477153-1-1-1s-1 .4477153-1 1v1c0 .5522847.4477153 1 1 1s1-.4477153 1-1z" fill="#000000" data-original="#000000"></path><path id="Shape" d="m10 11c0-.5522847-.44771525-1-1-1h-2c-.55228475 0-1 .4477153-1 1s.44771525 1 1 1h2c.55228475 0 1-.4477153 1-1z" fill="#000000" data-original="#000000"></path><path id="Shape" d="m13 12h12c.5522847 0 1-.4477153 1-1s-.4477153-1-1-1h-12c-.5522847 0-1 .4477153-1 1s.4477153 1 1 1z" fill="#000000" data-original="#000000"></path></g></g></g></svg>