<svg xmlns="http://www.w3.org/2000/svg" version="1.1" xmlns:xlink="http://www.w3.org/1999/xlink"
     xmlns:svgjs="http://svgjs.com/svgjs" width="512" height="512" x="0" y="0" viewBox="0 0 64 64"
     style="enable-background:new 0 0 512 512" xml:space="preserve" class="">
    <g>
        <path xmlns="http://www.w3.org/2000/svg" d="m10 63h14a1 1 0 0 0 1-1v-4a1 1 0 0 0 -1-1h-1v-22h1a1 1 0 0 0 1-1v-4a1 1 0 0 0 -1-1h-1v-22h1a1 1 0 0 0 1-1v-4a1 1 0 0 0 -1-1h-14a1 1 0 0 0 -1 1v4a1 1 0 0 0 1 1h1v22h-1a1 1 0 0 0 -1 1v4a1 1 0 0 0 1 1h1v22h-1a1 1 0 0 0 -1 1v4a1 1 0 0 0 1 1zm3-24h8v14h-8zm0-28h8v14h-8zm-2-8h12v2h-12zm10 4v2h-8v-2zm-8 20h8v2h-8zm-2 4h12v2h-12zm10 4v2h-8v-2zm-8 20h8v2h-8zm-2 4h12v2h-12z" fill="#000000" data-original="#000000" class=""></path>
        <path xmlns="http://www.w3.org/2000/svg" d="m49 8v1h-6a14.015 14.015 0 0 0 -14 14v6h-1a1 1 0 0 0 -1 1v4a1 1 0 0 0 1 1h1v22h-1a1 1 0 0 0 -1 1v4a1 1 0 0 0 1 1h14a1 1 0 0 0 1-1v-4a1 1 0 0 0 -1-1h-1v-22h1a1 1 0 0 0 1-1v-4a1 1 0 0 0 -1-1h-1v-5a3 3 0 0 1 3-3h5v1a1 1 0 0 0 1 1h4a1 1 0 0 0 1-1v-14a1 1 0 0 0 -1-1h-4a1 1 0 0 0 -1 1zm-10 45h-8v-14h8zm2 8h-12v-2h12zm-10-4v-2h8v2zm8-20h-8v-2h8zm2-4h-12v-2h12zm-10-4v-2h8v2zm8-5v1h-8v-2a12.013 12.013 0 0 1 12-12h2v8h-1a5.006 5.006 0 0 0 -5 5zm8-5v-8h2v8zm4-10h2v12h-2z" fill="#000000" data-original="#000000" class=""></path>
    </g>
</svg>