<svg xmlns="http://www.w3.org/2000/svg" version="1.1" xmlns:xlink="http://www.w3.org/1999/xlink" xmlns:svgjs="http://svgjs.com/svgjs" width="512" height="512" x="0" y="0" viewBox="0 0 512 512" style="enable-background:new 0 0 512 512" xml:space="preserve" class=""><g><g xmlns="http://www.w3.org/2000/svg"><path d="m51.918 384.27c.936 4.025-1.588 8.051-5.612 8.985-4.026.908-8.052-1.615-8.959-5.641l-7.087-30.644h-11.792c-4.139 0-7.512-3.345-7.512-7.512 0-12.16 4.989-23.216 12.982-31.237 8.022-8.023 19.078-12.983 31.268-12.983h43.795c-7.682-8.589-12.897-20.069-15.732-32.315l-19.389-84.021h-15.25c-4.139 0-7.513-3.344-7.513-7.482 0-12.189 4.989-23.244 12.983-31.238 8.021-8.021 19.077-13.011 31.266-13.011h46.83c-4.792-6.35-8.108-14.231-10.008-22.564l-4.11-17.773c-.936-4.054 1.588-8.051 5.613-8.986 4.025-.907 8.051 1.616 8.958 5.641l4.11 17.802c1.814 7.796 5.103 14.938 9.949 19.787 3.742 3.77 8.561 6.095 14.485 6.095h189.611c5.925 0 10.743-2.325 14.485-6.095 4.847-4.849 8.135-11.991 9.949-19.787l13.749-59.556h-73.106c-1.587 9.185-6.01 17.404-12.33 23.754-8.023 7.994-19.079 12.983-31.268 12.983h-32.57c-12.16 0-23.244-4.989-31.238-12.983-6.35-6.35-10.771-14.569-12.359-23.754h-73.107l2.013 8.646c.907 4.025-1.616 8.022-5.642 8.958-4.024.906-8.05-1.588-8.957-5.641l-2.777-11.963h-15.25c-4.139 0-7.512-3.345-7.512-7.483 0-12.189 4.989-23.245 13.011-31.268 7.995-7.995 19.049-12.984 31.24-12.984h253.73c12.19 0 23.245 4.989 31.268 12.982 7.993 8.023 12.982 19.078 12.982 31.268 0 4.139-3.373 7.483-7.512 7.483h-15.25l-14.514 62.873c-1.928 8.305-5.244 16.215-10.035 22.564h46.857c12.16 0 23.216 4.989 31.237 13.011 8.022 7.994 12.983 19.049 12.983 31.238 0 4.139-3.346 7.482-7.483 7.482h-15.278l-5.188 22.536c-.935 4.026-4.961 6.549-8.985 5.642-4.025-.936-6.549-4.934-5.613-8.958l4.423-19.22h-106.273c-1.587 9.185-6.01 17.434-12.33 23.755-8.022 8.023-19.079 12.983-31.268 12.983h-53.773c-12.188 0-23.245-4.96-31.238-12.983-6.35-6.321-10.771-14.57-12.359-23.755h-106.272l18.623 80.676c2.438 10.602 6.945 20.353 13.606 27.014 5.329 5.33 12.16 8.647 20.581 8.647h247.892c8.42 0 15.251-3.316 20.58-8.647 6.661-6.661 11.169-16.412 13.606-27.014l6.548-28.347c.936-4.054 4.933-6.548 8.957-5.641 4.054.936 6.549 4.932 5.642 8.957l-6.548 28.375c-2.835 12.246-8.022 23.727-15.732 32.315h43.823c12.162 0 23.217 4.961 31.239 12.983 8.022 8.021 12.982 19.077 12.982 31.237 0 4.167-3.345 7.512-7.483 7.512h-11.82l-23.132 100.234c-3.543 15.336-10.29 29.68-20.409 39.799-9.269 9.244-21.175 14.999-35.887 14.999h-292.624c-14.712 0-26.617-5.755-35.858-14.996-10.148-10.119-16.865-24.463-20.409-39.799l-8.447-36.482c-.907-4.025 1.616-8.051 5.642-8.958 4.024-.935 8.05 1.587 8.957 5.612l8.419 36.483c2.948 12.756 8.391 24.492 16.441 32.542 6.521 6.549 14.911 10.602 25.257 10.602h292.625c10.347 0 18.736-4.053 25.257-10.602 8.05-8.05 13.492-19.786 16.44-32.542l22.365-96.89h-129.291c-1.587 9.185-6.01 17.405-12.33 23.755-8.022 7.994-19.078 12.983-31.268 12.983h-74.977c-12.189 0-23.245-4.989-31.267-12.983-6.321-6.35-10.743-14.57-12.331-23.755h-129.288zm248.63-332.537h-89.095c1.361 5.046 4.025 9.553 7.626 13.152 5.301 5.301 12.614 8.59 20.636 8.59h32.57c8.05 0 15.335-3.289 20.636-8.59 3.601-3.599 6.264-8.106 7.627-13.152zm10.601 137.169h-110.297c1.36 5.047 4.024 9.553 7.625 13.153 5.301 5.301 12.615 8.589 20.637 8.589h53.773c8.05 0 15.336-3.288 20.666-8.589 3.571-3.6 6.235-8.106 7.596-13.153zm10.602 168.069h-131.501c1.36 5.046 4.024 9.553 7.625 13.153 5.301 5.301 12.586 8.589 20.637 8.589h74.977c8.051 0 15.365-3.288 20.666-8.589 3.571-3.601 6.235-8.107 7.596-13.153zm89.377-320.234c-1.36-5.046-4.025-9.553-7.597-13.153-5.329-5.301-12.614-8.588-20.666-8.588h-253.73c-8.023 0-15.337 3.287-20.638 8.588-3.6 3.601-6.265 8.107-7.625 13.153zm43.767 137.171c-1.332-5.018-3.996-9.553-7.597-13.125-5.301-5.301-12.614-8.589-20.636-8.589-113.784 0-227.54 0-341.296 0-8.05 0-15.363 3.288-20.664 8.589-3.572 3.572-6.236 8.107-7.597 13.125zm30.162 168.068c-1.332-5.046-3.997-9.553-7.597-13.152-5.301-5.301-12.615-8.589-20.638-8.589-133.881 0-267.764 0-401.616 0-8.051 0-15.365 3.288-20.666 8.589-3.571 3.6-6.235 8.106-7.597 13.152z" fill="#000000" data-original="#000000" class=""></path></g></g></svg>