<svg viewBox="0 0 22.433 22.381" xmlns="http://www.w3.org/2000/svg">
  <g>
    <path d="m4.816 2.8c-1.459-.141-2.145 2.432-.357 2.546 1.468.135 2.141-2.446.357-2.546zm.361 1.286c-.125.208-.252.605-.56.58-.736.031-.633-.524-.319-.973.266-.452 1.165-.182.879.389zm-3.007 6.887h3.111a.34.34 0 1 1 0 .679h-3.111a.34.34 0 0 1 0-.679zm0 1.7h3.111a.34.34 0 0 1 0 .679h-3.111a.34.34 0 0 1 0-.682zm0 1.7h2.093a.34.34 0 0 1 0 .679h-2.093a.34.34 0 0 1 0-.685zm20.263-7.055a.4.4 0 0 0 -.058-.184l-2.328-3.409v-1.348a.34.34 0 0 0 -.34-.34h-6.707a.339.339 0 0 0 -.338.34v1.348l-1.01 1.475-1.852-3.49v-1.37a.338.338 0 0 0 -.334-.34h-6.707a.339.339 0 0 0 -.337.34v1.37l-2.35 4.438c-.182.157.049 15.712-.039 15.886a.339.339 0 0 0 .34.339c6.288-.029 15.614.049 21.84-.023a.349.349 0 0 0 .22-.316zm-2.726-2.886 1.744 2.554h-3.488c.189-.278 1.593-2.336 1.744-2.554zm-6.366-1.715h6.026v.774h-6.026zm-10.241-2.037h6.027v.775h-6.027zm3.638 21.014h-6.025v-15.047h6.025zm-5.801-15.726 2.028-3.835h5.935c-.319.6-1.683 3.183-2.027 3.835zm6.481.424 2.048-3.872 1.754 3.316a11.4 11.4 0 0 0 -.945 1.482c-.006 0 0 12.86 0 12.864-.246-.163-.7-.835-1.033-.517l-1.824 1.614zm2.048 13.981.807.715v.606h-2.3zm7.512 1.321h-6.025v-14.029h6.025zm.162-14.708h-5.884l1.923-2.816h5.883zm1.075 14.708 1.492-1.321 1.493 1.321zm3.541-.415-1.825-1.614a.341.341 0 0 0 -.451 0l-1.822 1.614v-13.614h4.1zm-9.147-3.279h2.715a.34.34 0 0 0 .34-.34v-6.086a.34.34 0 0 0 -.34-.339h-2.715a.34.34 0 0 0 -.34.339v6.088a.34.34 0 0 0 .34.338zm.338-6.088h2.037v5.408h-2.037z" data-name="milk products" fill="#000000" data-original="#000000" class=""></path>
  </g>
</svg>
