<svg xmlns="http://www.w3.org/2000/svg" version="1.1" xmlns:xlink="http://www.w3.org/1999/xlink" xmlns:svgjs="http://svgjs.com/svgjs" width="512" height="512" x="0" y="0" viewBox="0 0 64 64" style="enable-background:new 0 0 512 512" xml:space="preserve" class=""><g><path xmlns="http://www.w3.org/2000/svg" d="m50.012 5.983h-28.688l-5.092-5.093s0 0-.001 0c0-.001 0-.001 0-.001-1.17-1.166-3.072-1.166-4.242 0v.001c-.001 0-.001 0-.001 0l-2.121 2.123c-1.169 1.169-1.169 3.071-.001 4.242.001.001.002.001.003.002l5.145 5.144v46.587c0 2.757 2.243 5 5 5l30-.001c1.33 0 2.584-.521 3.53-1.468s1.468-2.201 1.468-3.532v-48.005c-.003-2.756-2.245-4.999-5-4.999zm-34.824 3.763-1.217-1.217 3.535-3.536 1.189 1.188c-1.719.474-3.063 1.834-3.507 3.565zm-.369-7.44 1.272 1.273-3.535 3.536-1.272-1.271c-.001-.001-.001-.002-.002-.003-.391-.39-.391-1.024-.001-1.414l2.12-2.121c.391-.391 1.028-.391 1.418 0zm38.193 56.68c0 .797-.313 1.55-.882 2.118s-1.321.882-2.118.882l-29.998.001c-1.654 0-3-1.346-3-3v-48.004c0-.798.313-1.55.882-2.118s1.32-.882 2.118-.882h29.998c1.652 0 2.998 1.346 3 3z" fill="#000000" data-original="#000000"></path><path xmlns="http://www.w3.org/2000/svg" d="m46.004 40.992h-22.002c-.553 0-1 .447-1 1s.447 1 1 1h22.002c.553 0 1-.447 1-1s-.447-1-1-1z" fill="#000000" data-original="#000000"></path><path xmlns="http://www.w3.org/2000/svg" d="m46.004 37.986h-22.002c-.553 0-1 .447-1 1s.447 1 1 1h22.002c.553 0 1-.447 1-1s-.447-1-1-1z" fill="#000000" data-original="#000000"></path><path xmlns="http://www.w3.org/2000/svg" d="m41.004 45.992c.553 0 1-.447 1-1s-.447-1-1-1h-12.002c-.553 0-1 .447-1 1s.447 1 1 1z" fill="#000000" data-original="#000000"></path><path xmlns="http://www.w3.org/2000/svg" d="m35.002 34.988c4.963 0 9-4.037 9-9 0-.553-.447-1-1-1-2.757 0-5-2.243-5-5 0-.553-.447-1-1-1h-4c-3.859 0-7 3.141-7 7 0 4.963 4.037 9 9 9zm0-2c-3.519 0-6.432-2.613-6.92-6h13.84c-.488 3.387-3.401 6-6.92 6zm-3.722-8c.347-.595.985-1 1.722-1s1.375.405 1.722 1zm1.722-4h3.08c.225 1.557.956 2.949 2.03 4h-1.252c-.447-1.721-2-3-3.858-3s-3.411 1.279-3.858 3h-1.04c.463-2.279 2.484-4 4.898-4z" fill="#000000" data-original="#000000"></path><path xmlns="http://www.w3.org/2000/svg" d="m27.512 53.987c-1.379 0-2.5 1.121-2.5 2.5s1.121 2.5 2.5 2.5 2.5-1.121 2.5-2.5-1.121-2.5-2.5-2.5zm0 3c-.275 0-.5-.225-.5-.5s.225-.5.5-.5.5.225.5.5-.225.5-.5.5z" fill="#000000" data-original="#000000"></path><path xmlns="http://www.w3.org/2000/svg" d="m35.002 53.987c-1.379 0-2.5 1.121-2.5 2.5s1.121 2.5 2.5 2.5 2.5-1.121 2.5-2.5-1.121-2.5-2.5-2.5zm0 3c-.275 0-.5-.225-.5-.5s.225-.5.5-.5.5.225.5.5-.225.5-.5.5z" fill="#000000" data-original="#000000"></path><path xmlns="http://www.w3.org/2000/svg" d="m42.512 53.987c-1.379 0-2.5 1.121-2.5 2.5s1.121 2.5 2.5 2.5 2.5-1.121 2.5-2.5-1.121-2.5-2.5-2.5zm0 3c-.275 0-.5-.225-.5-.5s.225-.5.5-.5.5.225.5.5-.225.5-.5.5z" fill="#000000" data-original="#000000"></path></g></svg>
