<svg xmlns="http://www.w3.org/2000/svg" version="1.1" xmlns:xlink="http://www.w3.org/1999/xlink" xmlns:svgjs="http://svgjs.com/svgjs" width="512" height="512" x="0" y="0" viewBox="0 0 16.933333 16.933334" style="enable-background:new 0 0 512 512" xml:space="preserve" class=""><g><g xmlns="http://www.w3.org/2000/svg" id="layer1" transform="translate(0 -280.067)"><path id="path4364" d="m2.6458313 280.59633c-.4351602 0-.7927155.35756-.7927155.79272.00775.34495.5214223.34495.5291667 0 0-.15115.1123897-.26355.2635488-.26355h11.6427007c.15116 0 .263549.11239.263549.26355v13.23072c-.0081.36078.537266.36078.529167 0v-13.23072c0-.43516-.357555-.79272-.792716-.79272zm-.5332995 1.58389c-.1453118.003-.2611331.12235-.259416.26768v13.22813c0 .43516.3575553.7953.7927155.7953h11.6427007c.435161 0 .792716-.36014.792716-.7953-.0078-.34494-.521422-.34494-.529167 0 0 .15116-.112389.26614-.263549.26614h-11.6427007c-.1511591 0-.2635488-.11498-.2635488-.26614v-13.22813c.00185-.14938-.1203934-.2706-.2697507-.26768zm6.0900659.26768v12.17187c.0077.34494.521422.34494.529166 0v-12.17187c0-.35989-.529166-.34318-.529166 0zm-3.1057537.0858-1.3063802 1.3069c-.4668494.46686-.46686 1.23019 0 1.69705.4668599.46686 1.2301934.46687 1.6970534 0l1.3068985-1.30689c.46686-.46686.472644-1.2245 0-1.69706-.483428-.48334-1.2400992-.45765-1.6975717 0zm6.35 0-1.306896 1.3069c-.4668493.46686-.4668603 1.23019 0 1.69705.46686.46686 1.230193.46687 1.697053 0l1.306896-1.30689c.475644-.47565.465749-1.24441 0-1.69706-.512296-.49788-1.255141-.44191-1.697053 0zm-5.0275993.37311c.268087.27077.266039.68325 0 .94929l-.465606.46561-.9498116-.94826.4661217-.46664c.2656311-.26593.6935419-.25832.9492959 0zm6.3494843 0c.256844.24247.266038.68325 0 .94929l-.465606.46561-.949296-.94723.467672-.46767c.272428-.27243.683321-.24915.94723 0zm-1.788007.84077.948264.94826-.466637.46664c-.266042.26604-.683258.26604-.949296 0-.266042-.26603-.266031-.68119 0-.94723zm-6.3510316.00053.9487773.94878-.4656032.46561c-.2660412.26604-.6832573.26603-.9492959 0-.2660412-.26604-.2660306-.6812 0-.94723zm.4671536 3.28352-1.3063802 1.3069c-.4668494.46686-.46686 1.23019 0 1.69705.4668599.46685 1.2301934.46687 1.6970534 0l1.3068985-1.30638c.46686-.46686.476023-1.22154 0-1.69757-.483383-.48338-1.239107-.45864-1.6975717 0zm6.35 0-1.306896 1.3069c-.4668493.46686-.4668603 1.23019 0 1.69705.46686.46685 1.230193.46687 1.697053 0l1.306896-1.30638c.46686-.46686.474668-1.2229 0-1.69757-.483383-.48338-1.236871-.46018-1.697053 0zm-5.0275993.37311c.262189.26219.266039.68325 0 .94929l-.465606.46612-.9498116-.94877.4661217-.46664c.2601251-.26042.6922559-.25704.9492959 0zm6.3494843 0c.269219.26922.266038.68325 0 .94929l-.465606.46611-.949296-.94826.467672-.46716c.235321-.23505.656627-.29058.94723.00002zm-1.788523.84026.948262.94981-.466119.46612c-.266042.26604-.683258.26604-.949296 0-.266042-.26604-.266031-.68326 0-.9493zm-6.3510342.00053.9492959.94929-.4656032.46612c-.2660412.26605-.6832573.26604-.9492959 0-.2660412-.26604-.2660306-.68326 0-.94929zm.4676722 3.28817-1.3063802 1.30689c-.4668494.46686-.46686 1.23019 0 1.69706.4668599.46685 1.2301934.46687 1.6970534 0l1.3068985-1.30638c.46686-.46686.473081-1.22449 0-1.69757-.484952-.48496-1.2389086-.45885-1.6975717 0zm6.35 0-1.306896 1.30689c-.4668493.46686-.4668603 1.23019 0 1.69706.46686.46685 1.230193.46687 1.697053 0l1.306896-1.30638c.46686-.46686.469525-1.22805 0-1.69757-.484952-.48496-1.239946-.45711-1.697053 0zm-5.0275993.3731c.269433.26943.266039.68325 0 .9493l-.465606.4656-.9492957-.94929.4656058-.46561c.2688723-.26887.6922559-.25704.9492959 0zm6.3494843 0c.269393.26939.256225.69307 0 .9493l-.465606.4656-.94878-.94878.467156-.46612c.268333-.26774.690597-.25663.94723 0zm-1.788523.84026.947746.94981-.465603.46561c-.266042.26604-.683258.26603-.949296 0-.266042-.26604-.266031-.68275 0-.94878zm-6.3510342.00053.9492959.94929-.4656032.46561c-.2660412.26604-.6832573.26604-.9492959 0-.2660412-.26604-.2660306-.68274 0-.94878z" font-variant-ligatures="normal" font-variant-position="normal" font-variant-caps="normal" font-variant-numeric="normal" font-variant-alternates="normal" font-feature-settings="normal" text-indent="0" text-align="start" text-decoration-line="none" text-decoration-style="solid" text-decoration-color="rgb(0,0,0)" text-transform="none" text-orientation="mixed" white-space="normal" shape-padding="0" isolation="auto" mix-blend-mode="normal" solid-color="rgb(0,0,0)" solid-opacity="1" vector-effect="none" fill="#000000" data-original="#000000" class=""></path></g></g></svg>